<?xml version="1.0" encoding="UTF-8"?><!DOCTYPE svg PUBLIC "-//W3C//DTD SVG 1.1//EN" "http://www.w3.org/Graphics/SVG/1.1/DTD/svg11.dtd"><svg xmlns="http://www.w3.org/2000/svg" xmlns:xlink="http://www.w3.org/1999/xlink" version="1.1" id="Layer_1" x="0px" y="0px" width="512px" height="512px" viewBox="0 0 512 512" xml:space="preserve"><path fill="#F3F2F2" d="M7.9 256C7.9 119 119 7.9 256 7.9S504.1 119 504.1 256 393 504.1 256 504.1 7.9 393 7.9 256z"/><path fill-rule="evenodd" clip-rule="evenodd" fill="#1A80AD" d="M371.6 214.3c-10.3 0-18.5 2.7-24.7 4L345 234c3.1-1.5 13-4.2 21.1-4.5 8.2-.2 13 1.5 11.3 8.5-24.3 0-40.6 5-43.9 20.7-4.8 26.9 24.7 26.2 36.5 14.4l-1.4 6.5h21.6l9.4-42.8c3.7-18.2-12.9-22.7-28-22.5zm1.4 43.9c-1.2 5.7-5.8 8.2-11.3 8.5-4.8.2-9.1-4-6-9 2.4-4.2 9.1-5.2 13.2-5.2h5.3c-.5 1.9-.7 3.7-1.2 5.7z"/><path fill-rule="evenodd" clip-rule="evenodd" fill="#1A80AD" d="M417.9 197.4L400 279.6h22l18.1-82.2h-22.2z"/><path fill-rule="evenodd" clip-rule="evenodd" fill="#1A80AD" d="M317.1 197.6h-40.2l-17.8 81.9h23.3l6-27.1H305c16.4 0 29.8-10 33.4-26.9 4.2-19.1-9.8-27.9-21.3-27.9zm-.7 27.9c-1.4 6.2-7.7 11.2-13.7 11.2h-10.8l4.8-22.4h11.5c6 0 9.6 5 8.2 11.2z"/><g><path fill-rule="evenodd" clip-rule="evenodd" fill="#1A5B80" d="M161.1 214.3c-10.2 0-18.3 2.7-24.2 4L135 234c2.8-1.5 12.6-4.2 20.6-4.5 8.1-.2 12.8 1.5 11.4 8.5-24 0-40.1 5-43.4 20.7-4.7 26.9 24.4 26.2 35.8 14.4l-1.4 6.5h21.6l9.2-42.8c3.9-18.2-12.7-22.7-27.7-22.5zm1.7 43.9c-1.2 5.7-5.9 8.2-11.4 8.5-4.7.2-8.8-4-5.7-9 2.4-4.2 9-5.2 12.8-5.2h5.5c-.5 1.9-1 3.7-1.2 5.7z"/><path fill-rule="evenodd" clip-rule="evenodd" fill="#1A5B80" d="M198.3 215.5h21.6l3.5 38.2 21.1-38.2h22.2l-51.2 91.3h-24.2l15.8-26.8-8.8-64.5z"/><path fill-rule="evenodd" clip-rule="evenodd" fill="#1A5B80" d="M107.5 197.6H67.2l-17.9 81.9H73l5.8-27.1h16.9c16.2 0 29.7-10 33.3-26.9 4-19.1-9.7-27.9-21.5-27.9zm-.8 27.9c-1.4 6.2-7.5 11.2-13.5 11.2H82.1l5.1-22.4h11.6c5.8 0 9.6 5 7.9 11.2z"/></g><g><path fill="#1A5B80" d="M444.8 208v-9.7h-3.6V197h8.7v1.3h-3.6v9.7h-1.5z"/><path fill="#1A5B80" d="M451.4 208v-11h2.2l2.6 7.8c.2.7.4 1.3.5 1.6.1-.4.3-1 .6-1.8l2.6-7.6h2v11h-1.4v-9.2l-3.2 9.2H456l-3.2-9.4v9.4h-1.4z"/></g><metadata><rdf:RDF xmlns:rdf="http://www.w3.org/1999/02/22-rdf-syntax-ns#" xmlns:rdfs="http://www.w3.org/2000/01/rdf-schema#" xmlns:dc="http://purl.org/dc/elements/1.1/"><rdf:Description about="https://iconscout.com/legal#licenses" dc:title="paypal" dc:description="paypal" dc:publisher="Iconscout" dc:date="2018-03-26" dc:format="image/svg+xml" dc:language="en"><dc:creator><rdf:Bag><rdf:li>Roundicons.com</rdf:li></rdf:Bag></dc:creator></rdf:Description></rdf:RDF></metadata></svg>